<svg width="44" height="33" viewBox="0 0 44 33" fill="none" xmlns="http://www.w3.org/2000/svg">
<path d="M36.8034 1.09125L33.9884 3.27828L22.0027 12.1357L10.017 3.19079L7.20205 1.00376C6.53889 0.4582 5.72935 0.118106 4.87372 0.0256163C4.01809 -0.0668731 3.15398 0.0923071 2.38844 0.483436C1.62289 0.874564 0.989559 1.48045 0.5669 2.22604C0.144242 2.97162 -0.0491679 3.82414 0.0106318 4.67797V30.0256C0.0106318 30.8145 0.325746 31.571 0.886654 32.1288C1.44756 32.6866 2.20831 33 3.00156 33H10.017V16.1161L22.0027 25.0611L33.9884 16.1161V33H41.0039C41.7971 33 42.5579 32.6866 43.1188 32.1288C43.6797 31.571 43.9948 30.8145 43.9948 30.0256V4.67797C44.0361 3.83151 43.8293 2.99135 43.3994 2.25961C42.9695 1.52787 42.3352 0.936068 41.5734 0.556147C40.8117 0.176225 39.9554 0.0245431 39.1085 0.119538C38.2617 0.214533 37.4609 0.552114 36.8034 1.09125Z" fill="black"/>
</svg>
