<svg width="44" height="44" viewBox="0 0 44 44" fill="none" xmlns="http://www.w3.org/2000/svg">
<path fill-rule="evenodd" clip-rule="evenodd" d="M20.8487 0.347879C21.5453 -0.11596 22.4528 -0.11596 23.1513 0.347879L43.0687 13.5663C43.6498 13.9514 44 14.6022 44 15.3007V28.6988C44 29.3955 43.6517 30.0482 43.0687 30.435L23.1513 43.6535C22.4547 44.1155 21.5472 44.1155 20.8487 43.6535L0.931333 30.4332C0.645122 30.2433 0.410313 29.9856 0.247819 29.683C0.0853249 29.3804 0.000191096 29.0423 0 28.6988L0 15.3007C0 14.604 0.348333 13.9514 0.931333 13.5645L20.8487 0.347879ZM4.16533 19.1819V24.7883L8.36 21.9649L4.16533 19.1819ZM12.1165 24.4583L5.83 28.6878L19.9173 38.0379V29.6357L12.1183 24.4583H12.1165ZM24.0827 29.6357V38.0361L38.17 28.686L31.8817 24.4583L24.0827 29.6357ZM35.6382 21.9668L39.8365 24.7901V19.1801L35.6382 21.9668ZM38.1517 15.3007L31.9 19.4496L24.0827 14.1915V5.96344L38.1517 15.3007ZM19.9173 5.96344V14.1897L12.1018 19.4477L5.84833 15.3007L19.9173 5.96344ZM22 17.8106L15.8583 21.9429L22 26.0185L28.1417 21.9429L22 17.8106Z" fill="black"/>
</svg>
