<svg width="44" height="42" viewBox="0 0 44 42" fill="none" xmlns="http://www.w3.org/2000/svg">
<path fill-rule="evenodd" clip-rule="evenodd" d="M22 0C9.845 0 0 9.6352 0 21.5312C0 31.0587 6.2975 39.106 15.0425 41.9589C16.1425 42.1473 16.555 41.5013 16.555 40.9361C16.555 40.4248 16.5275 38.7292 16.5275 36.926C11 37.9218 9.57 35.6072 9.13 34.396C8.8825 33.777 7.81 31.8661 6.875 31.3548C6.105 30.9511 5.005 29.9552 6.8475 29.9283C8.58 29.9014 9.8175 31.4893 10.23 32.1353C12.21 35.3919 15.3725 34.4768 16.6375 33.9116C16.83 32.5121 17.4075 31.5701 18.04 31.0318C13.145 30.4935 8.03 28.6365 8.03 20.4008C8.03 18.0593 8.8825 16.1215 10.285 14.6143C10.065 14.076 9.295 11.8691 10.505 8.90852C10.505 8.90852 12.3475 8.34333 16.555 11.1155C18.315 10.631 20.185 10.3888 22.055 10.3888C23.925 10.3888 25.795 10.631 27.555 11.1155C31.7625 8.31641 33.605 8.90852 33.605 8.90852C34.815 11.8691 34.045 14.076 33.825 14.6143C35.2275 16.1215 36.08 18.0324 36.08 20.4008C36.08 28.6634 30.9375 30.4935 26.0425 31.0318C26.84 31.7046 27.5275 32.9965 27.5275 35.0151C27.5275 37.8949 27.5 40.2095 27.5 40.9361C27.5 41.5013 27.9125 42.1742 29.0125 41.9589C33.3798 40.5158 37.1748 37.7687 39.8634 34.1042C42.5519 30.4398 43.9987 26.0425 44 21.5312C44 9.6352 34.155 0 22 0Z" fill="black"/>
</svg>
