<svg width="44" height="38" viewBox="0 0 44 38" fill="none" xmlns="http://www.w3.org/2000/svg">
<path d="M43.8961 21.4971L38.4767 1.73611C38.3497 1.25768 38.0684 0.831285 37.6739 0.519362C37.2793 0.20744 36.7923 0.0263705 36.2842 0.00266543C35.776 -0.0210396 35.2734 0.113865 34.8499 0.387627C34.4264 0.661389 34.1043 1.05963 33.9307 1.52404L29.8413 12.1468H14.1587L10.0693 1.52404C9.8957 1.05963 9.57357 0.661389 9.15007 0.387627C8.72658 0.113865 8.22396 -0.0210396 7.71581 0.00266543C7.20766 0.0263705 6.72068 0.20744 6.32615 0.519362C5.93162 0.831285 5.65028 1.25768 5.52332 1.73611L0.103879 21.4971C-0.0617398 22.1125 -0.0286947 22.7624 0.198542 23.359C0.42578 23.9555 0.836238 24.4699 1.37437 24.8324L20.1935 37.4795C20.6116 37.7638 21.096 37.9427 21.603 38H22.397C22.904 37.9427 23.3884 37.7638 23.8065 37.4795L42.6256 24.8324C43.1638 24.4699 43.5742 23.9555 43.8015 23.359C44.0287 22.7624 44.0617 22.1125 43.8961 21.4971ZM3.18085 22.2876L5.10644 15.2314H11.975L18.7245 32.7561L3.18085 22.2876ZM25.2755 32.7561L32.025 15.2314H38.8936L40.8192 22.2876L25.2755 32.7561Z" fill="black"/>
</svg>
