<svg width="37" height="19" viewBox="0 0 37 19" fill="none" xmlns="http://www.w3.org/2000/svg">
<path d="M0.814427 0.726558C1.33606 0.261343 2.04346 0 2.78105 0C3.51864 0 4.22603 0.261343 4.74767 0.726558L18.5168 13.0101L32.2859 0.726558C32.8105 0.274528 33.5132 0.0244027 34.2425 0.0300566C34.9719 0.0357106 35.6695 0.296691 36.1853 0.756786C36.701 1.21688 36.9936 1.83928 36.9999 2.48993C37.0062 3.14058 36.7259 3.76742 36.2192 4.23544L20.4834 18.2734C19.9618 18.7387 19.2544 19 18.5168 19C17.7792 19 17.0718 18.7387 16.5502 18.2734L0.814427 4.23544C0.29295 3.77008 0 3.13901 0 2.481C0 1.82299 0.29295 1.19191 0.814427 0.726558V0.726558Z" fill="#555555"/>
</svg>
